<svg width="189" height="184" viewBox="0 0 189 184" fill="none" xmlns="http://www.w3.org/2000/svg">
<mask id="mask0_437_370" style="mask-type:luminance" maskUnits="userSpaceOnUse" x="28" y="43" width="133" height="96">
<path d="M28.835 43.8777H160.468V138.884H28.835V43.8777Z" fill="white"/>
</mask>
<g mask="url(#mask0_437_370)">
<path fill-rule="evenodd" clip-rule="evenodd" d="M82.1756 43.923C74.3883 44.3272 65.0048 47.6307 59.3089 51.9691C57.0859 53.6627 55.7321 55.1088 53.8346 57.8199C51.7397 60.8133 51.2931 61.1757 47.0861 63.3153C43.2911 65.2458 42.145 66.0299 39.9393 68.2078C35.0156 73.0724 31.9755 78.7525 30.4969 85.8612C30.4415 86.1365 30.2892 86.8056 30.1645 87.3457C29.7733 89.0114 29.5551 90.4053 29.3578 92.4194C29.2193 93.8691 29.1812 94.2071 29.0738 94.9005C28.8765 96.1829 28.9734 98.4131 29.3162 100.466C29.5343 101.772 29.9499 103.26 31.0717 106.752C31.6292 108.491 32.3217 109.878 33.7829 112.192C35.0017 114.119 35.3514 114.843 35.5627 115.868C36.6118 121.018 39.4719 124.935 44.5826 128.228C47.5223 130.12 49.9565 131.117 54.3782 132.239L56.2307 132.706L56.9197 133.072C57.9793 133.629 60.5554 134.776 61.151 134.954C61.2168 134.971 61.5803 135.121 61.9578 135.288C63.6509 136.023 65.1606 136.431 66.9473 136.63C67.948 136.741 70.4306 136.825 70.8184 136.762L71.137 136.706L71.7014 136.943C72.8059 137.4 74.139 137.797 75.2644 138.003C75.9846 138.132 79.8453 138.191 81.2269 138.09C81.6459 138.062 82.1687 138.045 82.3903 138.052C83.062 138.072 83.7199 138.052 84.1978 137.992C84.6271 137.94 84.6652 137.943 85.053 138.062C87.7607 138.895 91.386 138.316 93.6194 136.689C97.8195 133.626 98.1242 127.336 94.1976 124.698C93.1519 123.998 91.7704 123.513 90.8216 123.513H90.5169V123.109C90.5169 122.708 90.3819 121.775 90.2469 121.234C90.2088 121.074 89.9525 120.384 89.6825 119.694C88.6887 117.182 88.0862 114.37 88.152 112.585C88.1797 111.84 88.9726 108.564 89.3224 107.752C90.0599 106.041 90.4096 105.686 91.7669 105.288C92.8161 104.978 93.5121 104.686 94.1145 104.299C94.2496 104.212 94.5162 104.072 94.7066 103.989C96.8777 103.058 98.7648 101.619 100.825 99.3226C102.026 97.981 102.026 97.981 103.869 97.9427C106.4 97.8869 107.47 97.5245 110.236 95.7891C112.037 94.6601 112.134 94.6322 113.349 94.8762C115.409 95.2873 116.548 95.134 118.979 94.12C120.967 93.2941 121.098 93.2906 122.622 94.0085C124.308 94.7995 125.25 94.9458 127.535 94.7612C132.504 94.3569 134.706 95.0713 139.89 98.7651C145.284 102.609 148.771 103.727 152.885 102.936C153.276 102.86 153.792 102.762 154.024 102.717C159.238 101.734 161.745 95.6463 159.124 90.346C158.438 88.9591 158.376 88.527 158.522 86.147C158.868 80.4182 156.846 76.2574 152.718 74.2154C152.012 73.8669 152.085 74.069 152.005 72.2152C151.832 68.1416 150.589 65.2144 147.625 61.89C144.027 57.8548 137.926 54.8405 132.784 54.5617C132.497 54.5478 132.133 54.5269 131.978 54.5164C129.602 54.3666 127.12 55.297 126.074 56.7222C125.793 57.1056 125.842 57.123 125.496 56.541C122.386 51.3419 116.039 47.777 107.362 46.3588C105.586 46.0695 104.187 45.9057 100.614 45.5677C95.6588 45.1008 94.807 44.9997 92.7503 44.6513C89.6444 44.1216 89.5509 44.1111 87.4768 44.031C86.7566 44.0066 85.9117 43.9648 85.5966 43.9404C85.0703 43.8986 82.837 43.8881 82.1756 43.923ZM85.4374 45.4249C96.0605 45.9685 103.578 52.4465 108.335 65.1622C110.821 71.804 112.767 82.0943 112.819 88.8825L112.826 89.9592L112.601 90.6353C112.096 92.1476 111.701 92.7575 110.974 93.1477C110.766 93.2593 110.229 93.6042 109.786 93.9144C107.22 95.709 106.057 96.1132 103.841 95.9808C102.511 95.9007 101.843 96.0052 101.195 96.3885L100.922 96.5523L100.96 96.2073C101.279 93.1199 100.631 88.9487 99.2945 85.4988C95.6 75.9612 85.517 65.4479 78.6611 63.9843C77.9167 63.824 77.8059 63.9321 78.4811 64.1516C85.6105 66.4829 95.1464 77.0066 98.5016 86.2446C99.8555 89.9697 100.316 94.0956 99.7273 97.2248C99.6027 97.8834 99.62 97.859 98.7544 98.7442C96.2059 101.351 93.3493 102.759 90.3023 102.915C89.9387 102.933 89.5301 102.975 89.3985 103.009C89.2704 103.044 89.1596 103.069 89.1596 103.062C88.8411 102.365 88.751 102.124 88.6852 101.807C87.4941 95.9355 81.4312 87.5827 75.4513 83.5683C72.3281 81.474 68.0311 79.7979 65.1502 79.5505C64.5131 79.4947 64.6031 79.6515 65.3095 79.8292C69.3988 80.8572 71.9091 81.927 74.7865 83.861C79.0109 86.7011 83.1936 91.6214 85.7628 96.7718C86.2961 97.8381 86.9401 99.3191 86.8916 99.3644C86.8847 99.3749 86.4588 98.786 85.9533 98.0542C82.4284 92.977 79.9354 90.468 76.2858 88.3075C74.184 87.067 71.4486 85.9937 70.1917 85.9205C69.5962 85.8856 69.5546 86.0006 70.119 86.1261C72.2 86.5861 75.1951 88.1124 77.5912 89.9314C79.9042 91.6842 81.8225 93.7123 84.0281 96.723C84.4159 97.2527 84.7552 97.7162 84.7864 97.7545C84.8141 97.7928 84.6444 97.65 84.409 97.4409C79.5718 93.1582 72.4839 90.6701 63.2181 90.0115C60.919 89.8477 57.0236 89.785 56.8332 89.907C56.6427 90.0289 56.8332 90.0533 59.3193 90.2241C71.6148 91.0709 79.4991 93.7785 84.5786 98.9045C87.3348 101.689 88.4913 104.306 88.0689 106.801C87.9962 107.236 87.7053 108.459 87.6811 108.435C87.6742 108.428 87.5945 108.121 87.501 107.752C86.49 103.766 84.1112 100.208 80.8218 97.7684C75.2471 93.6321 68.689 92.287 63.135 94.1409C62.2728 94.4266 62.2417 94.5172 63.0519 94.3709C68.8898 93.322 74.0421 94.3778 78.9832 97.6395C82.5773 100.013 84.9457 103.086 86.2407 107.059C86.6285 108.254 86.625 108.278 86.1818 107.397C83.9035 102.853 80.0531 100.131 74.7865 99.34C73.9763 99.2181 72.6501 99.0822 72.6155 99.117C72.5532 99.1797 72.6709 99.2111 73.3253 99.3157C79.2359 100.25 83.0828 102.922 85.3335 107.661C85.7178 108.463 86.2753 109.979 86.3965 110.536L86.4311 110.683L86.3515 110.571C83.6992 106.832 81.2961 104.877 77.7609 103.584C74.8973 102.539 70.9708 102.03 68.2077 102.351C67.0408 102.487 66.2028 102.623 65.1191 102.846C64.4923 102.975 63.7964 103.117 63.5748 103.159C62.9446 103.278 62.813 103.316 62.813 103.386C62.813 103.574 63.3151 103.55 64.7832 103.299C69.4473 102.494 72.5393 102.661 76.3481 103.915C79.8072 105.058 81.7705 106.39 84.0281 109.122C84.2324 109.372 84.4471 109.63 84.5025 109.697C84.5579 109.759 84.4194 109.651 84.1978 109.456C80.6486 106.323 75.0185 104.7 70.2367 105.435C65.9986 106.083 61.8019 108.641 58.2701 112.721C52.8443 118.994 51.9613 125.775 55.9364 130.633L56.1372 130.873L55.9467 130.734C51.5978 127.514 49.9634 122.984 51.0334 117.108C51.7709 113.049 53.935 108.902 56.9059 105.86C57.3041 105.452 57.633 105.1 57.6365 105.079C57.7057 104.612 55.9744 106.072 54.6898 107.567C51.899 110.822 49.9738 115.603 49.8111 119.698C49.8007 120.043 49.7799 120.409 49.773 120.513C49.6414 122.05 50.1747 124.747 50.9537 126.489C51.3831 127.448 52.5188 129.214 52.9724 129.622C53.2737 129.897 53.0036 129.744 52.6054 129.416C47.8201 125.468 45.888 117.426 48.3222 111.61C48.7931 110.488 48.3741 110.777 47.7924 111.976C45.5348 116.631 46.7398 124.214 50.4101 128.427C50.6006 128.646 50.5486 128.611 49.9842 128.148C47.5154 126.113 45.0016 121.754 44.9947 119.499C44.9947 119.168 44.9427 119.091 44.8319 119.252C44.2329 120.112 46.0265 124.531 47.9344 126.911C48.1352 127.158 48.336 127.416 48.388 127.482L48.478 127.601L48.2703 127.468C45.6803 125.82 43.8624 123.51 42.9518 120.705C42.7336 120.046 42.6782 119.931 42.6055 120.004C42.5536 120.057 42.6194 120.422 42.8098 121.095C43.6928 124.231 45.9919 127.002 49.2363 128.834C49.631 129.058 49.5722 129.051 49.0355 128.81C43.2599 126.228 40.2856 121.684 40.2683 115.429C40.2614 112.202 41.1616 108.561 42.467 106.525C42.7821 106.034 42.7959 106.006 42.6955 106.006C42.2939 106.006 41.1616 108.083 40.5834 109.892C38.9767 114.896 39.5446 120.13 42.1173 124.088L42.3839 124.496L41.7364 123.848C39.2607 121.367 37.7718 118.572 37.1554 115.237C35.4865 106.205 40.9573 96.4338 50.791 90.8792C51.3796 90.5482 51.4004 90.5307 51.3035 90.4332C50.9607 90.0882 48.336 91.2207 46.3001 92.5902C40.8188 96.277 36.9165 101.971 35.5938 108.212C35.4622 108.825 35.5557 105.128 35.7081 103.776C36.1409 99.8279 37.8341 96.6638 40.9677 93.9353C41.9095 93.1164 41.501 93.1826 40.386 94.0294C36.3625 97.0785 34.7801 100.814 34.7593 107.31C34.7559 108.278 34.7386 109.052 34.7178 109.034C34.6659 108.979 34.188 107.055 34.0218 106.222C33.1943 102.062 33.7102 98.7476 35.6977 95.4476C35.8189 95.2455 35.9158 95.0678 35.9158 95.0504C35.9158 94.8274 35.1368 95.8066 34.6589 96.629C32.8376 99.7478 32.4775 102.609 33.3328 107.149C33.3986 107.501 33.4436 107.797 33.4367 107.808C33.3639 107.878 32.204 104.125 31.8543 102.678C31.4907 101.197 31.4803 101.103 31.5115 99.3923C31.6327 92.7087 34.4477 88.4364 40.8361 85.2619C46.5113 82.4393 54.5894 81.1081 61.6496 81.8329C62.7057 81.941 63.0554 81.819 62.3248 81.596C59.3712 80.6934 53.4779 80.6481 48.62 81.4949C40.3064 82.9376 34.4339 86.4467 31.7331 91.5796C31.605 91.8236 31.5011 92.0117 31.4976 91.9978C31.4665 91.0639 33.3466 87.8754 35.1437 85.8125C40.4102 79.7735 47.6158 76.6547 57.0513 76.3376C58.0035 76.3027 58.1732 76.2679 58.0901 76.1285C57.9481 75.8985 55.0015 75.7103 53.3498 75.8288C44.4164 76.463 36.591 80.7213 32.3252 87.2725C32.0793 87.6489 32.0759 87.6071 32.2559 86.1818C32.5606 83.753 32.7303 83.3244 34.0426 81.6726C35.9193 79.31 39.5446 76.923 42.8617 75.8602C43.8382 75.55 43.7066 75.3026 42.6817 75.5187C40.0121 76.0902 36.4491 78.066 34.2192 80.216C33.6929 80.7283 33.679 80.7806 34.4685 79.1671C35.9747 76.1006 38.0142 73.0062 40.3791 70.1975C41.958 68.3228 43.7585 67.0021 47.0133 65.3155C49.0286 64.2736 49.8492 63.8345 50.5071 63.4338C51.6082 62.7682 55.7148 61.7158 58.3567 61.4266C64.1634 60.7819 69.1114 61.1025 72.7609 62.3535C73.3911 62.5696 73.772 62.6183 73.3288 62.4267C68.6197 60.3951 62.4667 59.8654 56.0056 60.9422C55.6178 61.0084 55.2438 61.0711 55.1746 61.0851C54.9184 61.1373 56.7466 60.4265 57.8719 60.0397C60.1538 59.2486 62.9377 58.6075 64.7728 58.4437C65.0602 58.4193 65.1398 58.3949 65.1398 58.3391C65.1398 58.2729 65.0325 58.2694 64.25 58.2938C61.5699 58.3844 57.3595 59.3323 54.4128 60.5031L53.6407 60.8098L53.838 60.5728C54.354 59.956 56.2965 58.7887 57.8477 58.1684C62.5291 56.3006 69.191 56.7675 75.479 59.4089C81.6528 62.0015 88.6125 67.4377 92.2828 72.5323C92.6533 73.0515 92.8784 73.3233 92.92 73.3094C93.0862 73.2467 91.9816 71.5182 90.9151 70.1662C87.0163 65.2284 80.5586 60.4718 74.4784 58.0638C71.4659 56.8721 67.6571 56.0567 64.9044 56.0183C64.6551 56.0148 64.3019 56.0009 64.1184 55.9835L63.786 55.9521L64.6205 55.7709C66.9508 55.2621 68.9002 55.0461 70.8912 55.074C72.1169 55.0914 72.3281 55.0531 71.8676 54.8893C69.9805 54.2307 65.7631 54.6802 61.009 56.0497C60.1918 56.2832 60.1953 56.2832 60.4619 56.1403C62.169 55.2168 65.5969 54.0774 67.8095 53.701C73.4811 52.7323 79.1944 54.0983 84.6687 57.7293C85.2816 58.1335 85.5586 58.2694 85.6313 58.1928C85.8598 57.9628 83.8654 56.5863 81.7532 55.52C74.4091 51.8123 66.9092 51.9796 58.5367 56.0323C58.052 56.2657 57.6884 56.4295 57.73 56.3982C58.0312 56.1438 59.018 55.4259 59.6067 55.0322C64.9736 51.4185 71.1543 49.6274 76.2373 50.2198C76.4728 50.2477 76.7706 50.2825 76.9022 50.2965C77.9617 50.4149 79.9215 50.7948 81.0261 51.091C81.3758 51.1851 81.5143 51.1851 81.4139 51.091C81.2823 50.9655 78.7823 50.171 77.7886 49.9375C73.0518 48.8155 67.7818 49.6309 62.5152 52.2897C61.8296 52.6382 61.9439 52.5511 63.0381 51.8855C70.5033 47.3693 78.4638 45.0729 85.4374 45.4249ZM96.566 46.8222C103.803 49.9341 110.101 58.0604 114.305 69.7201C114.976 71.581 114.99 71.6123 115.063 71.6123C115.416 71.6123 113.688 66.4933 112.29 63.3885C108.938 55.9521 104.565 50.5439 99.3257 47.3554C98.8375 47.0592 98.4704 46.8153 98.5085 46.8153C98.9379 46.8153 104.675 47.3833 105.787 47.5331C114.506 48.7283 120.8 51.9621 123.989 56.8895C124.796 58.137 125.253 59.0849 125.253 59.5204C125.253 60.2104 125.52 61.2419 126.067 62.6567C127.154 65.4793 127.158 65.4967 127.317 66.5874C128.245 72.94 127.566 79.1184 125.309 84.8751C125.007 85.6417 124.422 86.8126 124.37 86.7568C124.357 86.7464 124.412 86.4711 124.488 86.1435C124.685 85.3142 124.848 84.3907 124.962 83.4603C125.406 79.878 125.233 70.2428 124.654 66.3156C124.332 64.1202 123.356 60.7505 122.975 60.5136C122.847 60.4334 122.888 60.6808 123.131 61.4998C123.712 63.4442 124.041 65.197 124.204 67.2007C124.235 67.5561 124.267 67.9429 124.277 68.0579C124.291 68.1729 124.312 68.6259 124.329 69.065C124.343 69.5041 124.367 69.9292 124.377 70.0059C124.502 70.9607 124.429 79.1985 124.277 81.3277C124.173 82.7181 123.865 85.004 123.789 84.9273C123.778 84.9134 123.74 84.3698 123.702 83.7147C123.411 78.2925 122.532 73.4104 121.583 71.9503C121.434 71.7204 121.261 71.6123 121.33 71.7935C121.94 73.386 122.459 76.3585 122.684 79.5296C123.075 85.0284 123.003 87.3144 122.369 89.4331L122.237 89.8652L121.406 90.7119L120.572 91.5552L120.098 91.6772C119.824 91.7434 119.319 91.9316 118.91 92.1198C116.379 93.2662 115.728 93.3812 114.038 93.0014L113.578 92.8968L113.931 92.3881C115.6 89.9906 116.812 86.7777 117.324 83.3906C117.501 82.2267 117.466 79.9617 117.276 79.9617C117.196 79.9617 117.168 80.1289 117.099 81.0628C116.926 83.4011 116.368 85.6731 115.385 88.0566C115.115 88.7152 114.793 89.3912 114.869 89.1438C116.181 84.9134 116.427 79.6515 115.472 76.2679C115.382 75.9473 115.274 75.8288 115.274 76.0483C115.274 76.1146 115.323 76.6094 115.378 77.1425C115.506 78.3169 115.53 81.0454 115.427 82.0699C115.25 83.7495 115.015 85.3142 114.8 86.2202C114.675 86.7429 114.242 88.2622 114.208 88.297C114.18 88.3249 114.222 87.513 114.27 87.0844C114.682 83.4777 114.63 77.7628 114.152 74.3966C113.726 71.3823 112.958 68.8768 111.535 65.8591C111.355 65.4758 111.178 65.0925 111.143 65.0054C111.078 64.8451 110.998 64.7998 110.998 64.9217C110.998 64.9601 111.227 65.6884 111.504 66.5386C112.868 70.7203 113.28 72.5706 113.591 75.9543C113.671 76.808 113.751 82.1744 113.681 82.1082C113.664 82.0908 113.609 81.7249 113.56 81.2963C111.639 64.7126 104.866 51.5196 95.8147 46.7351L95.3403 46.4842L95.6242 46.5121C95.8216 46.533 96.1159 46.6306 96.566 46.8222ZM94.2704 52.2339C94.2704 52.2583 94.3604 52.3524 94.4712 52.4465C95.6173 53.3874 95.9809 53.7115 96.7426 54.4851C101.178 58.9908 103.515 63.9878 105.603 73.4139C106.109 75.6999 106.244 76.2261 106.33 76.2539C106.618 76.3515 105.628 70.7934 104.89 68.1485C103.332 62.5905 100.596 57.7398 97.1131 54.3736C95.7939 53.0947 94.2704 51.9517 94.2704 52.2339ZM133.259 56.1926C141.233 57.1265 148.487 63.3362 149.983 70.5042C150.045 70.8109 150.177 71.5182 150.27 72.0758C150.364 72.6333 150.461 73.1595 150.485 73.2467C150.544 73.4523 150.568 73.4453 150.128 73.3616C146.78 72.7239 143.075 74.2642 140.066 77.5328C136.791 81.0907 134.689 85.3838 134.429 89.0288L134.394 89.5306L134.353 88.9522C133.74 80.7109 140.056 71.4904 148.085 68.9047C149.166 68.5597 148.851 68.4204 147.601 68.6922C143.099 69.6783 138.148 74.1004 135.7 79.3205C133.667 83.6624 133.155 87.4607 134.09 91.2799C134.505 92.97 134.848 93.6495 134.789 92.6599L134.762 92.1685L134.872 92.4578C135.004 92.7993 135.208 93.2209 135.333 93.3986C135.461 93.5833 135.451 93.5868 135.149 93.4823C133.061 92.754 131.046 92.5832 128.127 92.8899C125.368 93.1791 124.786 93.0955 123.269 92.2034L123.068 92.0884L123.47 91.6458C126.254 88.6002 127.913 85.0981 128.792 80.4182C130.364 72.0479 130.267 68.5737 128.335 63.601C128.158 63.1376 127.944 62.5242 127.864 62.235C127.674 61.552 127.435 60.7993 127.168 60.0571C126.226 57.4296 128.969 55.6908 133.259 56.1926ZM94.5093 57.8373C94.5093 57.8582 94.6651 58.0569 94.8521 58.2799C97.3382 61.207 99.3915 64.8485 101.161 69.4797C102.04 71.7796 102.262 72.3337 102.303 72.3337C102.38 72.3337 102.352 72.1838 102.158 71.5182C100.783 66.8941 98.6401 62.5974 96.1194 59.4298C95.2364 58.3217 94.5093 57.6004 94.5093 57.8373ZM129.197 59.6703C129.197 59.6947 129.336 60.0048 129.502 60.3568C130.392 62.2211 130.714 64.0157 130.579 66.3609C130.468 68.2705 130.458 68.8315 130.541 68.8315C130.766 68.8315 131.143 65.88 131.081 64.636C130.994 62.9877 130.516 61.437 129.737 60.2906C129.315 59.6703 129.197 59.5344 129.197 59.6703ZM97.1685 66.0891C97.1685 66.1135 97.3763 66.462 97.6256 66.8697C99.021 69.1277 99.6962 70.6471 100.091 72.4173C100.205 72.9261 100.233 72.9992 100.292 72.94C100.472 72.7553 99.7966 70.4171 99.1872 69.1347C98.5743 67.8384 97.1685 65.7162 97.1685 66.0891ZM74.6653 71.9085C74.6169 71.9852 74.7242 72.0549 75.8669 72.6926C78.9104 74.3896 80.6244 75.6685 82.747 77.8221C87.1998 82.3347 90.7801 88.8685 91.7011 94.1583C91.8604 95.0817 91.9331 95.6393 92.0612 97.0123C92.0751 97.1447 92.1166 97.859 92.1582 98.5978C92.2448 100.173 92.2794 100.56 92.3452 100.56C92.5356 100.56 92.4871 96.8102 92.2725 94.9005C91.8396 91.0813 90.1153 86.7011 87.4006 82.5368C84.1043 77.4875 80.2505 74.1213 75.5725 72.2187C75.2055 72.0688 74.8592 71.926 74.8004 71.9016C74.7311 71.8737 74.6861 71.8737 74.6653 71.9085ZM130.887 73.0411C130.873 73.1142 130.818 73.7031 130.766 74.3478C130.295 80.108 128.816 84.7113 125.984 89.2484C125.392 90.1927 125.125 90.6875 125.177 90.7398C125.326 90.8897 126.528 89.5655 127.282 88.4155C129.066 85.7219 130.638 80.9478 131.032 77.0589C131.122 76.1703 131.154 73.8112 131.081 73.2327C131.039 72.8912 130.939 72.7902 130.887 73.0411ZM133.917 74.8879C132.992 75.8846 131.365 80.6168 130.911 83.631C130.731 84.8193 130.606 87.0356 130.7 87.3841C130.804 87.7743 130.953 87.2307 131.295 85.2131C131.943 81.3799 133.086 77.0275 133.879 75.3653C134.208 74.6719 134.214 74.5674 133.917 74.8879ZM149.72 75.5256C153.054 75.9926 155.707 78.6096 156.444 82.1535C156.69 83.3383 156.731 84.314 156.645 86.9241L156.6 88.2064L156.43 88.074C153.352 85.694 148.646 85.8229 145.482 88.3667C142.76 90.5586 141.001 94.4859 141.683 96.8555C141.735 97.0332 141.766 97.1795 141.756 97.1795C141.742 97.1795 141.486 96.9983 141.181 96.7788C140.367 96.1899 139.187 95.4093 138.536 95.033L137.964 94.7019L137.746 94.3221C137.625 94.113 137.397 93.7436 137.237 93.4997C135.582 90.9594 136.334 86.4153 139.104 82.1919C142.248 77.3934 146.049 75.0064 149.72 75.5256ZM148.238 76.1982C144.235 76.8254 141.029 79.6411 139.325 84.0213C138.501 86.1365 138.775 86.2446 139.841 84.2304C141.427 81.2266 142.597 79.8083 144.543 78.5329C146.603 77.1809 149.193 76.5606 150.997 76.9822C151.659 77.1391 151.79 77.0589 151.427 76.7244C150.887 76.2296 149.502 75.9996 148.238 76.1982ZM95.8389 76.2017C95.8389 76.2714 96.0778 76.6164 96.5245 77.2018C96.7911 77.5468 97.1893 78.0625 97.4109 78.3517C101.137 83.1885 103.328 88.8685 103.349 93.7367C103.353 94.7298 103.446 94.803 103.612 93.9388C104.333 90.1718 101.507 82.617 97.6117 77.9092C96.7807 76.9056 95.8389 75.9961 95.8389 76.2017ZM147.206 78.3239C145.021 79.0382 141.666 82.6205 140.305 85.6905C138.802 89.0741 138.709 91.6284 139.976 94.5137C140.773 96.3328 140.977 96.284 140.36 94.4266C139.554 91.9873 139.446 90.583 139.91 88.4992C140.762 84.6765 143.968 80.3763 147.293 78.5991C147.902 78.2716 147.85 78.1148 147.206 78.3239ZM101.635 82.1779C101.635 82.3138 101.857 82.8087 102.494 84.0875C104.204 87.5409 104.831 89.325 105.25 91.9281C105.465 93.2662 105.524 93.5345 105.614 93.5345C105.683 93.5345 105.686 93.4544 105.662 92.8272C105.565 90.5412 104.928 88.1821 103.661 85.4291C102.896 83.7704 101.635 81.7458 101.635 82.1779ZM80.4721 83.7426C80.4409 83.7913 80.6002 83.9447 81.3446 84.5649C84.3951 87.1123 86.7601 90.9141 87.83 94.9946C87.972 95.5278 88.3355 97.6082 88.519 98.9288C88.7787 100.765 89.0592 100.365 89.0246 98.211C88.938 92.855 86.0156 87.2865 81.7982 84.4465C81.0053 83.9133 80.524 83.6554 80.4721 83.7426ZM95.9185 84.788C95.9047 84.8158 96.0189 85.0598 96.1782 85.3351C98.2558 88.9382 98.9725 93.4195 98.0965 97.3224C97.8195 98.542 97.8229 98.9776 98.0965 98.3504C99.6893 94.7124 99.0521 89.3878 96.573 85.6208C96.102 84.9064 95.9601 84.7252 95.9185 84.788ZM151.87 87.2516C153.48 87.4189 155.014 87.9869 156.274 88.8825C156.704 89.1856 156.693 89.1996 156.188 89.0184C151.198 87.2307 143.636 91.7469 142.331 97.298C142.261 97.5942 142.158 96.7753 142.154 95.9076C142.144 93.2349 143.83 90.3844 146.468 88.6072C148.051 87.5409 149.973 87.06 151.87 87.2516ZM106.995 87.9486C106.957 87.9869 107.016 88.2204 107.307 89.224C107.733 90.6875 107.934 91.7016 107.989 92.6599C108.02 93.2035 108.058 93.3046 108.152 93.0676C108.391 92.4578 107.767 89.3564 107.165 88.1507C107.047 87.9137 107.04 87.9033 106.995 87.9486ZM155.142 90.8165C158.67 91.7225 159.36 95.8763 156.475 98.8139C153.394 101.95 148.525 101.779 143.439 98.3574C143.117 98.1378 143.113 98.1971 143.498 97.42C145.672 93.0153 151.295 89.8268 155.142 90.8165ZM152.085 91.8549C148.664 92.5832 145.447 95.2943 145.447 97.4548C145.447 98.8173 146.78 100.058 148.238 100.058C148.74 100.058 148.594 99.8593 147.66 99.2843C146.964 98.8592 146.638 98.542 146.434 98.103C145.495 96.1028 148.768 93.1024 152.94 92.1442C153.3 92.0605 153.619 91.9699 153.646 91.9455C153.84 91.7504 152.846 91.6946 152.085 91.8549ZM148.816 95.9738C148.581 96.1272 148.47 96.2596 148.286 96.629C147.656 97.8904 148.643 99.2703 150.215 99.3261C151.292 99.3679 151.295 99.1519 150.225 98.8313C148.806 98.4096 148.369 97.406 149.131 96.3188C149.363 95.9843 149.384 95.9111 149.27 95.8658C149.131 95.8135 149.031 95.8344 148.816 95.9738ZM74.4853 106.63C79.2982 107.149 83.7476 109.693 85.6971 113.035C86.2303 113.948 86.4311 114.45 86.4311 114.864V115.234L86.1818 114.948C84.2774 112.749 80.247 111.017 77.5912 111.254C77.4735 111.268 77.1757 111.289 76.9264 111.303C76.175 111.352 74.3676 111.78 74.2014 111.951C74.139 112.014 74.3433 112.014 74.6446 111.955C77.7332 111.331 82.283 112.53 84.596 114.572C85.0738 114.99 85.9083 115.962 85.9083 116.098C85.9083 116.112 85.6971 115.983 85.4374 115.812C83.204 114.335 79.409 113.261 77.2449 113.495C76.2547 113.603 76.2512 114.032 77.2415 114.115C79.1043 114.268 80.389 114.547 81.8917 115.122C86.3134 116.812 88.9415 119.9 88.9484 123.416C88.9519 123.98 89.0523 124.562 89.1631 124.646C89.2046 124.677 89.4366 124.716 89.6755 124.733C91.1437 124.841 93.1381 125.458 93.7856 126.001C97.3382 128.988 95.6034 134.957 90.7039 136.612C85.1396 138.491 80.2643 135.016 81.3204 129.925C81.5628 128.761 81.961 127.733 82.8855 125.9C83.2109 125.249 83.4637 124.705 83.4395 124.691C83.301 124.604 82.3626 125.413 81.9021 126.015C79.274 129.469 79.2013 133.176 81.7082 135.978L82.0337 136.341L81.7013 136.156C81.078 135.811 80.704 135.529 80.1604 134.988C79.4714 134.302 79.3502 134.288 79.6064 134.926C79.9077 135.671 80.6763 136.539 81.3689 136.909L81.5108 136.982L81.2996 136.957C79.6514 136.752 78.3876 135.156 77.8301 132.577C77.5531 131.295 77.4562 130.978 77.3211 130.925C77.1861 130.873 77.1515 131.134 77.1826 131.974C77.2588 134.041 77.6674 135.208 78.6992 136.306C79.0905 136.72 79.1217 136.713 78.1314 136.389C75.7422 135.602 73.6439 133.497 72.799 131.037C72.664 130.65 72.5151 130.009 72.3454 129.106C72.2 128.34 71.788 128.395 71.8641 129.173C72.1065 131.584 73.7616 134.661 75.4998 135.933C75.756 136.121 75.666 136.1 75.067 135.842C73.4257 135.131 72.0546 133.8 71.0747 131.967C70.7353 131.337 70.6522 131.312 70.8011 131.894C71.1959 133.469 72.7921 135.313 74.6307 136.32C75.022 136.536 74.9977 136.536 74.3468 136.341C73.1384 135.978 71.9022 135.455 71.601 135.184C69.9493 133.678 68.9036 130.584 68.824 126.967C68.8171 126.531 68.8067 126.137 68.8032 126.089C68.8032 126.029 68.7617 126.005 68.6613 126.005C67.6779 126.005 68.1488 131.096 69.3572 133.56L69.5234 133.898L69.1322 133.514C66.7949 131.208 65.6142 128.158 65.9709 125.336C66.2929 122.792 67.4459 120.436 69.8455 117.433C70.2748 116.892 70.7111 116.349 70.8081 116.227C71.4175 115.46 71.2859 114.788 70.6315 115.331C70.3787 115.54 69.1529 116.875 68.5816 117.565C64.3365 122.687 63.5471 127.991 66.3794 132.337C66.7326 132.877 66.6841 132.845 65.7423 131.915C63.2043 129.402 62.4806 126.981 63.1246 123.158C63.2874 122.193 63.277 122.022 63.0554 122.207C62.5291 122.642 62.1205 125.419 62.3317 127.134C62.6537 129.782 64.5477 132.553 67.5186 134.72C67.9999 135.076 67.9965 135.076 67.1066 134.779C62.401 133.225 60.2092 131.012 59.8421 127.441C59.7729 126.751 59.6171 126.88 59.6205 127.625C59.6309 129.814 60.7839 131.985 62.7195 133.445C63.1523 133.772 63.2735 133.87 63.1696 133.814C63.1419 133.797 62.7541 133.643 62.304 133.469C58.9557 132.176 55.9121 128.709 55.2646 125.454C54.4405 121.325 56.5665 116.279 60.9155 112.031C65.1468 107.898 69.6481 106.107 74.4853 106.63ZM91.9435 126.151C91.9435 126.179 92.0612 126.252 92.2101 126.319C94.3638 127.28 94.8555 129.967 93.4809 133.309C92.9857 134.511 93.145 134.678 93.8168 133.661C95.0252 131.824 95.2468 129.908 94.4573 128.092C93.9933 127.022 93.3701 126.437 92.4352 126.197C92.0197 126.089 91.9435 126.082 91.9435 126.151ZM93.2939 128.486C93.8791 130.023 93.8583 130.688 93.1831 132.075C91.6561 135.208 88.3736 136.229 84.8106 134.685C83.7269 134.215 83.6957 134.413 84.7414 135.1C88.5121 137.571 93.2835 135.48 94.0557 131.023C94.215 130.096 94.0107 129.179 93.5017 128.524C93.3943 128.385 93.2454 128.357 93.2939 128.486ZM92.0924 130.866C92.0612 130.901 91.9504 131.187 91.8431 131.504C91.483 132.563 91.0606 133.037 90.2088 133.344C89.8002 133.487 89.7552 133.553 90.0495 133.577C90.9428 133.643 92.0578 132.689 92.269 131.675C92.3867 131.107 92.2828 130.633 92.0924 130.866Z" fill="black"/>
</g>
</svg>
