<svg width="189" height="184" viewBox="0 0 189 184" fill="none" xmlns="http://www.w3.org/2000/svg">
<mask id="mask0_437_368" style="mask-type:luminance" maskUnits="userSpaceOnUse" x="42" y="100" width="55" height="51">
<path d="M42.7383 100.053H96.9079V150.808H42.7383V100.053Z" fill="white"/>
</mask>
<g mask="url(#mask0_437_368)">
<path d="M93.1311 107.515C100.552 117.404 96.0149 130.984 88.3569 139.236C80.9356 147.235 69.2633 152.625 58.2792 150.237C48.0302 148.006 41.5992 138.776 42.9539 128.358C44.3865 117.382 52.8417 107.898 62.5863 103.297C71.2658 99.2002 82.8041 98.238 90.5524 104.845C91.2033 105.403 94.629 109.179 92.0193 107.923C91.1877 107.521 90.185 105.907 89.4033 105.262C88.3444 104.394 87.1984 103.663 85.9713 103.062C81.4961 100.874 76.2984 100.626 71.462 101.52C61.1381 103.422 51.6645 110.646 46.9962 120.077C42.4183 129.326 43.1657 141.505 52.7981 147.178C64.0936 153.829 78.8895 147.429 87.0738 138.697C91.2376 134.259 94.3674 128.593 95.311 122.525C95.7751 119.554 95.7003 116.507 94.8564 113.611C94.4172 112.107 93.7134 110.8 93.0158 109.415C92.9068 109.195 91.9725 108.114 92.0193 107.923C92.1033 107.594 92.4771 106.644 93.1311 107.515Z" fill="#040606"/>
</g>
<path d="M47.6101 144.552C48.6534 142.126 50.4192 139.81 52.6148 138.315C55.0875 136.632 58.0523 136.55 60.743 135.422C66.8532 132.858 69.1765 127.383 72.3593 122.076C75.1434 117.432 79.6155 117.482 83.7731 114.739C85.8627 113.363 87.5631 111.502 88.9739 109.449C89.2822 108.994 91.4965 104.318 92.82 106.866C93.3899 107.963 89.8459 111.962 89.167 112.721C87.4884 114.586 85.5326 115.949 83.2312 116.924C80.8363 117.936 78.2079 118.331 76.2895 120.243C74.2901 122.236 73.4648 125.201 72.0042 127.577C70.4969 130.031 68.6564 132.36 66.3549 134.112C63.5054 136.277 60.6558 136.472 57.4232 137.66C54.72 138.656 52.5245 140.568 50.9704 142.997C50.5563 143.646 50.2137 145.081 49.5005 145.31C49.2483 145.392 47.4015 145.041 47.6101 144.552Z" fill="#040606"/>
<path d="M54.0781 134.538C61.6801 134.989 66.501 130.366 69.6495 123.838C65.2584 129.736 61.6271 133.538 54.0781 134.538Z" fill="#040606"/>
<path d="M75.0713 124.991C76.264 120.82 79.6119 119.613 83.3396 118.644C79.5122 118.259 74.847 120.509 75.0713 124.991Z" fill="#040606"/>
<path d="M56.0215 109.988C66.2799 103.065 78.5813 100.82 89.64 106.935C79.0484 99.8144 65.6477 101.996 56.0215 109.988Z" fill="#040606"/>
<path d="M52.6338 114.739C63.0292 105.757 76.4299 101.924 89.1331 107.775C76.9843 100.548 62.0856 104.976 52.6338 114.739Z" fill="#040606"/>
<path d="M53.2598 145.617C61.9673 151.13 73.0416 147.902 81.036 142.778C72.3004 146.724 62.668 150.068 53.2598 145.617Z" fill="#040606"/>
<path d="M71.0891 83.0653C70.3479 83.7548 70.0676 84.2437 72.0202 83.5166C72.3535 83.3912 72.6649 83.2095 72.9576 82.9869C72.3441 83.0465 71.7213 83.0716 71.0891 83.0653Z" fill="#231F20"/>
<path d="M79.5523 80.5705C77.6401 81.9997 75.3823 82.7519 72.9562 82.987C72.6635 83.2095 72.3521 83.3913 72.0189 83.5166C70.0662 84.2438 70.3465 83.7548 71.0877 83.0653C63.52 83.0152 54.8561 78.5772 50.194 74.1799C43.6914 68.0401 40.2844 54.6947 42.888 46.1008C43.6572 43.5684 48.7584 30.7747 52.7135 35.8834C52.7509 35.9304 52.7851 35.9711 52.8194 36.0056C52.8567 36.0495 52.8941 36.084 52.9315 36.109C52.9938 36.1592 53.3083 36.4193 53.5325 36.6074C53.6758 36.7265 53.8035 36.8581 53.9125 37.0054C54.5104 37.8109 55.2672 38.4785 55.8215 39.3498C57.2852 41.6409 58.1261 44.2579 59.213 46.7339C61.5767 52.1028 64.8436 57.0454 68.5246 61.5899C72.3988 66.3758 78.9419 75.7846 72.7787 81.6173C72.4517 81.9245 71.642 82.5513 71.0877 83.0653C71.7199 83.0716 72.3427 83.0465 72.9562 82.987C74.2051 82.0248 75.0708 80.2759 75.4913 78.9188C76.9238 74.3304 75.4913 68.7045 72.7756 64.8871C69.1226 59.7564 65.0304 55.2119 62.0065 49.6048C59.4061 44.7813 58.2382 38.8828 53.7723 35.3474C57.1451 32.6771 60.2251 34.8209 63.5947 37.369C68.4624 41.0485 72.6728 45.4708 75.7684 50.7582C78.6678 55.7165 80.5924 61.1574 82.1776 66.6579C83.6787 71.8606 84.3887 76.9537 79.5523 80.5705ZM79.3934 55.4281C76.8678 49.7866 73.4109 44.6058 68.9077 40.3621C65.3792 37.0399 59.8639 31.2511 54.8717 33.4513C54.2332 33.7333 53.436 34.1314 52.9689 34.5827C52.9253 34.5294 52.8785 34.4761 52.8287 34.4291C52.2152 33.8336 51.393 33.5516 50.5553 33.5798C48.7397 33.6393 47.2573 35.3631 46.2358 36.6763C43.3582 40.3715 41.4211 45.1606 41.1409 49.8368C40.3997 62.198 45.4915 74.3742 56.8025 79.9311C61.6047 82.2912 67.4814 84.3723 72.9002 84.1341C77.9765 83.9084 83.6662 80.185 84.4168 74.8256C85.2763 68.7014 81.8382 60.8973 79.3934 55.4281Z" fill="#231F20"/>
<path d="M72.9576 82.9869C72.6649 83.2095 72.3535 83.3912 72.0202 83.5166C70.0676 84.2437 70.3479 83.7548 71.0891 83.0653C71.7213 83.0716 72.3441 83.0465 72.9576 82.9869Z" fill="#231F20"/>
<path d="M76.4717 77.0915C78.0755 77.5209 79.9161 77.5585 81.5386 77.2106C79.888 76.9881 78.1316 76.9567 76.4717 77.0915Z" fill="#231F20"/>
<path d="M57.4941 67.8207C61.5489 73.083 67.7245 76.0416 74.2365 76.8158C67.874 75.4054 61.9164 72.8197 57.4941 67.8207Z" fill="#231F20"/>
<path d="M47.5065 37.4379C46.9054 47.8591 50.2657 57.7223 56.242 66.1815C50.7796 57.5343 47.2262 47.8183 47.5065 37.4379Z" fill="#231F20"/>
<path d="M76.3477 77.8156C77.9328 78.267 79.7516 78.3484 81.371 78.0507C79.7422 77.7749 77.9951 77.7028 76.3477 77.8156Z" fill="#231F20"/>
<path d="M49.0049 54.9173C52.6455 66.7394 61.6924 75.7909 74.081 77.5147C61.6239 75.1046 53.4396 66.5953 49.0049 54.9173Z" fill="#231F20"/>
<path d="M46.2722 39.0677C46.185 44.2297 47.1224 49.5328 48.8352 54.397C47.711 49.3165 46.7985 44.2517 46.2722 39.0677Z" fill="#231F20"/>
<path d="M76.0488 78.9533C77.4876 79.3482 79.1569 79.3826 80.6112 79.0535C79.1351 78.8153 77.5312 78.784 76.0488 78.9533Z" fill="#231F20"/>
<path d="M48.4463 56.0174C51.8533 68.1059 61.3643 76.7688 73.7778 78.7026C61.8501 76.7406 51.8315 67.6389 48.4463 56.0174Z" fill="#231F20"/>
<path d="M45.3271 41.8571C45.595 45.8971 46.2926 50.1125 47.7656 53.9018C46.8781 49.8994 46.2023 45.8563 45.3271 41.8571Z" fill="#231F20"/>
<path d="M75.6455 80.185C76.9971 80.5078 78.5792 80.442 79.8965 80.0001C78.5106 79.881 77.0158 79.9437 75.6455 80.185Z" fill="#231F20"/>
<path d="M62.5273 76.6622C65.6914 78.6556 69.5843 79.8904 73.3214 80.0158C69.5999 79.2009 66.0434 78.151 62.5273 76.6622Z" fill="#231F20"/>
<path d="M51.3691 66.1627C53.2688 70.1744 56.7506 73.575 60.6746 75.6122C57.0558 72.9419 53.8543 69.9644 51.3691 66.1627Z" fill="#231F20"/>
<path d="M43.7539 43.9319C44.7162 51.0403 46.5069 58.368 50.3655 64.4953C47.0581 57.9699 45.3328 51.034 43.7539 43.9319Z" fill="#231F20"/>
<path d="M75.2021 80.9748C76.2953 81.2914 77.6126 81.2882 78.7026 80.9591C77.5908 80.7303 76.3139 80.7366 75.2021 80.9748Z" fill="#231F20"/>
<path d="M43.3184 48.6395C46.5821 64.4765 55.2927 79.3608 72.8541 80.8119C66.0463 79.9876 59.5717 77.0101 54.6543 72.1804C48.3977 66.0342 45.3862 56.9858 43.3184 48.6395Z" fill="#231F20"/>
<path d="M74.4268 82.1846C74.9344 82.4228 75.4358 82.4134 75.931 82.1564C75.4264 81.9182 74.925 81.9276 74.4268 82.1846Z" fill="#231F20"/>
<path d="M46.0498 61.8501C49.6686 73.3431 59.8305 81.5108 71.7893 82.0875C59.6467 81.4387 50.4721 72.6473 46.0498 61.8501Z" fill="#231F20"/>
<path d="M42.1406 50.1941C42.7105 53.5069 43.7476 56.9138 45.2674 59.9226C44.3611 56.6599 43.2991 53.3721 42.1406 50.1941Z" fill="#231F20"/>
<path d="M54.6699 76.6497C55.3208 77.5837 56.389 78.3892 57.4728 78.7402C56.688 77.9191 55.6821 77.1637 54.6699 76.6497Z" fill="#231F20"/>
<path d="M42.8477 56.6693C44.7941 63.5708 48.1263 70.2497 53.2524 75.3145C48.4751 69.9269 45.3702 63.3702 42.8477 56.6693Z" fill="#231F20"/>
<path d="M44.1934 63.0474C45.4796 68.5008 48.8648 73.5375 53.5268 76.634C49.1669 73.1206 46.0619 68.3191 44.1934 63.0474Z" fill="#231F20"/>
<path d="M68.7587 43.139C66.641 41.7976 61.2657 39.5253 59.5996 42.694C61.6519 40.0832 66.3763 42.1988 68.7587 43.139Z" fill="#231F20"/>
<path d="M68.5836 64.1287C64.18 62.4832 59.2626 63.6617 56.2324 67.2127C59.7765 64.1663 63.9216 63.0975 68.5836 64.1287Z" fill="#231F20"/>
<path d="M71.3148 66.2129C68.1631 64.9436 63.8281 64.3825 60.9785 66.6329C64.1644 64.9373 67.9047 65.492 71.3148 66.2129Z" fill="#231F20"/>
<path d="M72.6195 68.0276C70.452 66.3758 66.9017 65.3886 64.6221 67.36C67.1633 65.9465 70.1686 66.8491 72.6195 68.0276Z" fill="#231F20"/>
<path d="M59.0889 41.3713C61.3779 39.1085 64.7942 40.5251 67.3043 41.4434C65.0994 40.0048 60.9699 38.5945 59.0889 41.3713Z" fill="#231F20"/>
<path d="M59.3994 39.2683C61.2462 37.999 62.9964 38.491 64.9086 39.1461C63.3452 37.9112 60.7884 37.5069 59.3994 39.2683Z" fill="#231F20"/>
<mask id="mask1_437_368" style="mask-type:luminance" maskUnits="userSpaceOnUse" x="105" y="75" width="54" height="42">
<path d="M105.006 75.8943H158.627V116.316H105.006V75.8943Z" fill="white"/>
</mask>
<g mask="url(#mask1_437_368)">
<path d="M107.833 101.178C102.044 104.237 113.336 111.392 115.818 112.671C124.077 116.936 138.194 115.83 145.463 109.922C152.51 104.199 161.025 91.092 155.942 82.0123C153.214 77.1386 148.381 76.9255 143.357 77.4552C137.727 78.0507 132.071 78.9721 126.724 80.9059C121.097 82.9431 116.045 86.187 111.635 90.2301C110.091 91.6405 107.142 93.7937 106.587 95.9656C106.257 97.2569 106.958 99.1343 107.117 100.241C107.251 100.231 107.375 100.184 107.484 100.096C107.182 100.419 107.35 100.758 107.995 101.112C106.846 101.513 107.372 100.557 107.176 100.422C106.833 100.187 108.867 99.8646 108.369 100.507C106.746 102.61 105.858 99.8301 105.516 98.2442C104.46 93.3329 111.458 88.6285 114.924 86.0272C120.025 82.2035 125.914 79.6303 132.093 78.1478C137.789 76.7813 145.712 74.8757 151.458 76.7186C156.814 78.4362 159.312 85.0587 158.465 90.2364C157.555 95.7839 154.376 101.388 150.975 105.769C143.385 115.545 129.842 118.309 118.194 114.818C114.068 113.583 110.035 110.84 107.198 107.59C106.139 106.374 104.784 104.66 105.052 102.914C105.173 102.115 105.581 101.372 106.248 100.896C107.064 100.313 108.833 100.648 107.833 101.178Z" fill="#231F20"/>
</g>
<mask id="mask2_437_368" style="mask-type:luminance" maskUnits="userSpaceOnUse" x="106" y="84" width="53" height="17">
<path d="M106.141 84.1309H158.675V100.98H106.141V84.1309Z" fill="white"/>
</mask>
<g mask="url(#mask2_437_368)">
<path d="M107.106 100.341C111.111 96.5328 116.745 96.2884 121.765 94.7589C127.636 92.9661 132.868 90.0514 138.28 87.2181C142.662 84.927 147.907 83.9428 152.684 85.7325C154.658 86.4721 156.732 87.8418 157.539 89.8915C157.72 90.3491 158.673 92.2954 157.386 92.1419C156.81 92.076 156.661 90.5246 156.449 90.1422C151.933 82.0623 141.251 87.1303 135.44 90.2049C130.367 92.8909 124.864 95.3857 119.277 96.7616C116.885 97.3509 114.406 97.6423 112.099 98.5481C110.943 99.0026 110 99.7736 108.897 100.272C109.483 100.006 105.475 101.892 107.106 100.341Z" fill="#231F20"/>
</g>
<path d="M152.279 84.974C152.983 83.4633 153.344 81.6486 153.285 79.9813C152.778 81.5766 152.438 83.3066 152.279 84.974Z" fill="#231F20"/>
<path d="M139.863 102.115C145.731 99.0246 149.717 93.4395 151.617 87.1367C149.122 93.1794 145.537 98.614 139.863 102.115Z" fill="#231F20"/>
<path d="M108.332 106.656C118.441 109.079 128.699 107.487 138.039 103.065C128.603 106.948 118.457 108.753 108.332 106.656Z" fill="#231F20"/>
<path d="M152.972 85.2216C153.691 83.736 154.087 81.9496 154.08 80.2979C153.526 81.8587 153.146 83.5731 152.972 85.2216Z" fill="#231F20"/>
<path d="M125.729 108.242C137.952 106.716 148.413 99.3599 152.278 87.4093C147.728 99.3066 137.952 105.907 125.729 108.242Z" fill="#231F20"/>
<path d="M109.711 108.164C114.756 109.151 120.119 109.157 125.186 108.317C120.01 108.537 114.887 108.552 109.711 108.164Z" fill="#231F20"/>
<path d="M154.03 85.7199C154.672 84.366 154.999 82.7205 154.93 81.2255C154.438 82.6422 154.127 84.2218 154.03 85.7199Z" fill="#231F20"/>
<path d="M126.705 108.985C139.153 107.738 149.315 99.8551 153.388 87.9202C149.371 99.3693 138.692 107.678 126.705 108.985Z" fill="#231F20"/>
<path d="M112.28 109.587C116.288 110.032 120.542 110.082 124.513 109.289C120.437 109.468 116.354 109.424 112.28 109.587Z" fill="#231F20"/>
<path d="M155.168 86.3343C155.722 85.0556 155.937 83.4791 155.732 82.1C155.374 83.4477 155.174 84.9365 155.168 86.3343Z" fill="#231F20"/>
<path d="M149.415 98.6892C151.919 95.9092 153.816 92.2767 154.594 88.6035C153.143 92.1388 151.486 95.4704 149.415 98.6892Z" fill="#231F20"/>
<path d="M137.164 107.879C141.431 106.703 145.373 103.857 148.061 100.338C144.81 103.444 141.328 106.086 137.164 107.879Z" fill="#231F20"/>
<path d="M114.036 111.505C121.174 111.806 128.67 111.32 135.353 108.578C128.377 110.702 121.277 111.191 114.036 111.505Z" fill="#231F20"/>
<path d="M155.861 86.9078C156.365 85.8861 156.593 84.5823 156.462 83.4477C156.042 84.507 155.827 85.7701 155.861 86.9078Z" fill="#231F20"/>
<path d="M118.577 112.765C134.672 112.317 150.788 106.315 155.291 89.2051C153.292 95.7901 149.234 101.67 143.641 105.685C136.515 110.797 127.12 112.185 118.577 112.765Z" fill="#231F20"/>
<path d="M156.913 87.8888C157.237 87.4312 157.315 86.9329 157.15 86.3969C156.829 86.8545 156.748 87.3528 156.913 87.8888Z" fill="#231F20"/>
<path d="M132.004 112.382C143.907 110.819 153.692 102.206 156.358 90.4808C153.589 102.375 143.362 109.903 132.004 112.382Z" fill="#231F20"/>
<path d="M119.892 114.2C123.239 114.219 126.762 113.79 129.979 112.815C126.622 113.138 123.211 113.614 119.892 114.2Z" fill="#231F20"/>
<path d="M148.02 106.453C149.053 105.973 150.028 105.061 150.564 104.052C149.62 104.682 148.702 105.544 148.02 106.453Z" fill="#231F20"/>
<path d="M126.364 114.636C133.471 113.924 140.603 111.803 146.464 107.622C140.344 111.401 133.374 113.32 126.364 114.636Z" fill="#231F20"/>
<path d="M132.854 114.426C138.425 114.113 143.953 111.649 147.808 107.581C143.598 111.276 138.347 113.505 132.854 114.426Z" fill="#231F20"/>
<path d="M117.646 86.6445C115.961 88.5031 112.791 93.4175 115.606 95.6208C113.407 93.1354 116.307 88.8353 117.646 86.6445Z" fill="#231F20"/>
<path d="M138.188 90.4996C135.806 94.5647 136.098 99.6326 139.044 103.253C136.681 99.2127 136.363 94.9282 138.188 90.4996Z" fill="#231F20"/>
<path d="M140.715 88.1647C138.918 91.0575 137.607 95.2479 139.313 98.4573C138.208 95.0097 139.41 91.4085 140.715 88.1647Z" fill="#231F20"/>
<path d="M142.722 87.1931C140.723 89.0454 139.132 92.3802 140.664 94.9847C139.723 92.2235 141.137 89.409 142.722 87.1931Z" fill="#231F20"/>
<path d="M114.217 95.8935C112.401 93.2358 114.391 90.1047 115.73 87.7823C113.933 89.7129 111.825 93.546 114.217 95.8935Z" fill="#231F20"/>
<path d="M112.212 95.2166C111.29 93.1699 112.081 91.5245 113.059 89.7505C111.573 91.0794 110.73 93.5335 112.212 95.2166Z" fill="#231F20"/>
</svg>
